<?xml version="1.0" encoding="UTF-8"?>
<svg xmlns="http://www.w3.org/2000/svg" width="619.83" height="133.71" viewBox="0 0 619.83 133.71">
  <defs>
    <style>
      .cls-1 {
        fill: #17bfab;
      }
    </style>
  </defs>
  <g id="Layer_1" data-name="Layer 1"/>
  <g id="Layer_2" data-name="Layer 2">
    <g id="Layer_1-2" data-name="Layer 1">
      <g>
        <g>
          <path class="cls-1" d="M59.72,133.71C26.79,133.71,0,103.72,0,66.86S26.79,0,59.72,0s59.72,29.99,59.72,66.86-26.79,66.85-59.72,66.85Zm0-127.89C30,5.83,5.83,33.2,5.83,66.86s24.18,61.03,53.89,61.03,53.89-27.38,53.89-61.03S89.43,5.83,59.72,5.83Z"/>
          <path class="cls-1" d="M71.44,46.55h-23.45l-11.72,20.31,10.93,18.93,.79,1.37h23.44l11.73-20.31-11.72-20.31Zm-2.64,36.04h-18.16l-9.08-15.73,9.08-15.73h18.16l9.08,15.73-9.08,15.73Z"/>
          <path class="cls-1" d="M84.38,24.48c-7.33-5.36-15.86-8.19-24.66-8.19-24.91,0-45.18,22.69-45.18,50.58,0,16.96,7.53,32.7,20.14,42.1,5.23,3.91,11.08,6.51,17.22,7.71,1.41,.28,2.72-.81,2.72-2.25h0c0-1.11-.79-2.04-1.87-2.25-5.46-1.07-10.66-3.39-15.33-6.88-11.46-8.55-18.3-22.91-18.3-38.43,0-25.36,18.22-46,40.61-46,7.83,0,15.42,2.53,21.96,7.31h0c11.67,8.52,18.64,22.98,18.64,38.69s-6.84,29.89-18.31,38.43c-4.13,3.08-8.68,5.25-13.45,6.46-1.02,.26-1.74,1.17-1.74,2.22h0c0,1.49,1.4,2.59,2.84,2.23,5.36-1.35,10.47-3.78,15.09-7.23,12.61-9.41,20.15-25.15,20.15-42.1s-7.67-33.01-20.52-42.38Z"/>
          <rect class="cls-1" x="74.53" y="82.88" width="4.58" height="26.03" transform="translate(-37.89 51.86) rotate(-30.3)"/>
          <rect class="cls-1" x="40.6" y="24.59" width="4.58" height="25.98" transform="translate(-13.03 26.41) rotate(-29.93)"/>
          <rect class="cls-1" x="29.6" y="93.6" width="26.03" height="4.58" transform="translate(-61.67 84.3) rotate(-59.69)"/>
          <rect class="cls-1" x="63.56" y="35.29" width="25.98" height="4.58" transform="translate(5.79 85.17) rotate(-60.07)"/>
          <rect class="cls-1" x="80.52" y="64.57" width="22.08" height="4.58"/>
          <rect class="cls-1" x="16.82" y="64.57" width="22.09" height="4.58"/>
          <g>
            <circle class="cls-1" cx="61.02" cy="114.81" r="1.21"/>
            <path class="cls-1" d="M61.02,117.27c-1.35,0-2.45-1.1-2.45-2.45s1.1-2.45,2.45-2.45,2.45,1.1,2.45,2.45-1.1,2.45-2.45,2.45Zm0-2.5s-.04,.02-.04,.04c0,.05,.08,.05,.08,0,0-.02-.02-.04-.04-.04Z"/>
          </g>
        </g>
        <g>
          <path class="cls-1" d="M169.14,49.65v49.24h-14.5V49.65h-6.19v-13.53h6.19V13.11h14.5v23.01h11.28v13.53h-11.28Z"/>
          <path class="cls-1" d="M188.21,67.05c0-9.07,3.24-16.78,9.73-23.14,6.49-6.36,14.39-9.54,23.72-9.54s17.32,3.2,23.85,9.6c6.44,6.4,9.67,14.26,9.67,23.59s-3.24,17.29-9.73,23.65c-6.53,6.32-14.54,9.47-24.04,9.47s-17.29-3.22-23.65-9.67c-6.36-6.36-9.54-14.35-9.54-23.98Zm14.82,.26c0,6.27,1.68,11.24,5.03,14.89,3.44,3.7,7.97,5.54,13.6,5.54s10.2-1.83,13.6-5.48c3.39-3.65,5.09-8.53,5.09-14.63s-1.7-10.98-5.09-14.63c-3.44-3.7-7.97-5.54-13.6-5.54s-10.03,1.85-13.47,5.54-5.16,8.46-5.16,14.31Z"/>
          <path class="cls-1" d="M270.52,36.11h14.5v5.61c2.66-2.79,5.03-4.7,7.09-5.74,2.11-1.07,4.6-1.61,7.48-1.61,3.82,0,7.82,1.25,11.99,3.74l-6.64,13.28c-2.75-1.98-5.44-2.96-8.06-2.96-7.91,0-11.86,5.97-11.86,17.92v32.55h-14.5V36.11Z"/>
          <path class="cls-1" d="M339.61,49.65v49.24h-14.5V49.65h-6.19v-13.53h6.19V13.11h14.5v23.01h11.28v13.53h-11.28Z"/>
          <path class="cls-1" d="M375.25,36.11v36.03c0,10.4,4.1,15.6,12.31,15.6s12.31-5.2,12.31-15.6V36.11h14.5v36.35c0,5.03-.62,9.37-1.87,13.02-1.2,3.27-3.29,6.21-6.25,8.83-4.9,4.25-11.13,6.38-18.69,6.38s-13.73-2.13-18.63-6.38c-3.01-2.62-5.13-5.56-6.38-8.83-1.2-2.92-1.8-7.26-1.8-13.02V36.11h14.5Z"/>
          <path class="cls-1" d="M489.84,70.92h-44.99c.39,5.16,2.06,9.26,5.03,12.31,2.96,3.01,6.77,4.51,11.41,4.51,3.61,0,6.6-.86,8.96-2.58,2.32-1.72,4.96-4.9,7.93-9.54l12.25,6.83c-1.89,3.22-3.89,5.98-5.99,8.28-2.11,2.3-4.36,4.19-6.77,5.67-2.41,1.48-5.01,2.57-7.8,3.25s-5.82,1.03-9.09,1.03c-9.37,0-16.89-3.01-22.56-9.02-5.67-6.06-8.51-14.09-8.51-24.1s2.75-17.96,8.25-24.1c5.54-6.06,12.89-9.09,22.04-9.09s16.54,2.94,21.91,8.83c5.33,5.84,7.99,13.94,7.99,24.3l-.06,3.42Zm-14.89-11.86c-2.02-7.73-6.9-11.6-14.63-11.6-1.76,0-3.42,.27-4.96,.81s-2.95,1.31-4.22,2.32-2.35,2.22-3.25,3.64-1.59,3.03-2.06,4.83h29.13Z"/>
          <path class="cls-1" d="M507.95,91.67c0-2.41,.88-4.49,2.64-6.25,1.76-1.76,3.87-2.64,6.32-2.64s4.55,.88,6.32,2.64c1.76,1.76,2.64,3.87,2.64,6.32s-.88,4.62-2.64,6.38c-1.72,1.72-3.82,2.58-6.32,2.58s-4.66-.86-6.38-2.58c-1.72-1.72-2.58-3.87-2.58-6.44Z"/>
          <path class="cls-1" d="M544.23,10.01c0-2.54,.92-4.73,2.77-6.57s4.06-2.77,6.64-2.77,4.86,.92,6.7,2.77c1.85,1.8,2.77,4.02,2.77,6.64s-.92,4.86-2.77,6.7c-1.8,1.85-4.02,2.77-6.64,2.77s-4.86-.92-6.7-2.77-2.77-4.1-2.77-6.77Zm16.69,26.1v96.93h-14.5V36.11h14.5Z"/>
          <path class="cls-1" d="M615.77,46.81l-11.99,6.38c-1.89-3.87-4.23-5.8-7.03-5.8-1.33,0-2.47,.44-3.42,1.32s-1.42,2.01-1.42,3.38c0,2.41,2.79,4.79,8.38,7.15,7.69,3.31,12.87,6.36,15.53,9.15s4,6.55,4,11.28c0,6.06-2.23,11.13-6.7,15.21-4.34,3.87-9.58,5.8-15.73,5.8-10.53,0-17.98-5.13-22.36-15.4l12.37-5.74c1.72,3.01,3.03,4.92,3.93,5.74,1.76,1.63,3.87,2.45,6.32,2.45,4.9,0,7.35-2.23,7.35-6.7,0-2.58-1.89-4.98-5.67-7.22-1.46-.73-2.92-1.44-4.38-2.13s-2.94-1.4-4.45-2.13c-4.21-2.06-7.18-4.12-8.89-6.19-2.19-2.62-3.29-5.99-3.29-10.12,0-5.46,1.87-9.97,5.61-13.53,3.82-3.57,8.46-5.35,13.92-5.35,8.03,0,14.01,4.15,17.92,12.44Z"/>
        </g>
      </g>
    </g>
  </g>
</svg>