<?xml version="1.0" encoding="UTF-8"?>
<svg xmlns="http://www.w3.org/2000/svg" width="323.26" height="195.95" viewBox="0 0 323.26 195.95">
  <defs>
    <style>
      .cls-1 {
        fill: #fff;
      }

      .cls-2 {
        fill: #68e0cc;
      }

      .cls-2, .cls-3 {
        stroke: #4f43bc;
        stroke-miterlimit: 10;
        stroke-width: 2px;
      }

      .cls-3 {
        fill: #4f43bc;
      }
    </style>
  </defs>
  <g id="Layer_1" data-name="Layer 1"/>
  <g id="Layer_2" data-name="Layer 2">
    <g id="Layer_1-2" data-name="Layer 1">
      <g>
        <g>
          <path d="M115.8,34h-.01v.5c0-.17,0-.33,.01-.5h0Z"/>
          <path d="M115.8,34h-.01v.5c0-.17,0-.33,.01-.5h0Z"/>
          <path d="M134.79,34h-.01c.01,.17,.01,.33,.01,.5v-.5h0Z"/>
          <circle class="cls-2" cx="125.29" cy="10.5" r="9.5"/>
          <g>
            <path class="cls-2" d="M164.49,82.52l-46.5,102.4c-5.44,11.98-21.81,13.58-29.47,2.88L35.37,113.5c1.1,0,2.91,.13,4.92,1,.91,.39,3.34,1.47,5,4,.56,.85,.74,1.43,1,2,.39,.85,1,1.82,2.04,2.82,.16,.15,.34,.31,.53,.48,.94,.75,2.13,1.2,3.43,1.2,3.04,0,5.5-2.46,5.5-5.5v-18.5h.01c-.01-.17-.01-.33-.01-.5,0-5.25,4.25-9.5,9.5-9.5s9.5,4.25,9.5,9.5c0,.17,0,.33-.01,.5h.01v23c0,2.76,2.24,5,5,5s5-2.24,5-5v-53h.01c-.01-.17-.01-.33-.01-.5,0-5.25,4.25-9.5,9.5-9.5s9.5,4.25,9.5,9.5c0,.17,0,.33-.01,.5h.01v60c0,2.76,2.24,5,5,5s5-2.24,5-5V34.5c0-.17,0-.33,.01-.5,.02-.24,.04-.48,.07-.72,.6-4.67,4.58-8.28,9.42-8.28,4.2,0,7.75,2.72,9.01,6.49,.27,.79,.43,1.64,.48,2.51,.01,.17,.01,.33,.01,.5V105.5c0,.19,.01,.38,.03,.56,.02,.18,.04,.36,.08,.53,.06,.32,.15,.63,.27,.92,.04,.11,.09,.22,.15,.33,.04,.1,.09,.21,.16,.31,.05,.12,.12,.23,.19,.33,.04,.07,.09,.14,.13,.2,.14,.19,.28,.37,.44,.54l.26,.26c.12,.12,.24,.23,.37,.32,.13,.1,.26,.2,.4,.29,.14,.1,.28,.18,.42,.25,.27,.14,.55,.27,.85,.37,.17,.06,.35,.11,.53,.15,.14,.03,.27,.06,.41,.07,.04,.02,.09,.02,.14,.02,.1,0,.21,.02,.31,.03,.12,.02,.24,.02,.36,.02,1.58,.03,3.15-.24,4.47-1.11,.18-.12,.36-.25,.53-.39,1.51-1.25,2.65-3.36,3-4,1.13-2.08,1.44-3.67,2-6,1.34-5.58,2.01-8.36,3-10,.62-1.03,2.78-4.3,7-6,1.55-.63,3-.89,4.2-.98Z"/>
            <g>
              <path class="cls-3" d="M4.22,69.95l31.15,43.55c1.1,0,2.91,.13,4.92,1,.91,.39,3.34,1.47,5,4,.56,.85,.74,1.43,1,2,.39,.85,1,1.82,2.04,2.82,.16,.15,.34,.31,.53,.48,.94,.75,2.13,1.2,3.43,1.2,3.04,0,5.5-2.46,5.5-5.5v-18.5h.01c-.01-.17-.01-.33-.01-.5,0-5.25,4.25-9.5,9.5-9.5s9.5,4.25,9.5,9.5c0,.17,0,.33-.01,.5h.01v23c0,2.76,2.24,5,5,5s5-2.24,5-5v-53h.01c-.01-.17-.01-.33-.01-.5,0-5.25,4.25-9.5,9.5-9.5s9.5,4.25,9.5,9.5c0,.17,0,.33-.01,.5h.01v60c0,2.76,2.24,5,5,5s5-2.24,5-5V34h.01c.02-.24,.04-.48,.07-.72L16.46,42.99c-13.1,1.28-19.9,16.26-12.24,26.96Z"/>
              <path class="cls-3" d="M160.67,28.91l-26.37,2.58c.27,.79,.43,1.64,.48,2.51,.01,.17,.01,.33,.01,.5V105.5c0,.19,.01,.38,.03,.56,.02,.18,.04,.36,.08,.53,.06,.32,.15,.63,.27,.92,.04,.11,.09,.22,.15,.33,.04,.1,.09,.21,.16,.31,.05,.11,.12,.22,.19,.33,.04,.07,.09,.14,.13,.2,.14,.19,.28,.37,.44,.54l.26,.26c.12,.12,.24,.23,.37,.32,.13,.1,.26,.2,.4,.29,.14,.1,.28,.18,.42,.25,.27,.14,.55,.27,.85,.37,.17,.06,.35,.11,.53,.15,.14,.03,.27,.06,.41,.07,.04,.02,.09,.02,.14,.02,.1,0,.21,.02,.31,.03,.12,.02,.24,.02,.36,.02,1.58,.03,3.15-.24,4.47-1.11,.18-.12,.36-.25,.53-.39,1.51-1.25,2.65-3.36,3-4,1.13-2.08,1.44-3.67,2-6,1.34-5.58,2.01-8.36,3-10,.62-1.03,2.78-4.3,7-6,1.55-.63,3-.89,4.2-.98l13.41-29.53c5.44-11.99-4.13-25.36-17.23-24.08Z"/>
            </g>
            <path d="M137.69,110.34c.27,.15,.55,.28,.85,.37-.3-.1-.58-.23-.85-.37h0Z"/>
            <path d="M137.69,110.34c.27,.15,.55,.28,.85,.37-.3-.1-.58-.23-.85-.37h0Z"/>
          </g>
        </g>
        <g>
          <path class="cls-1" d="M200.09,49.31v23.24h9.3v6.57h-17.03v-29.81h7.73Z"/>
          <path class="cls-1" d="M238.57,75.37c-3.04,2.91-7.33,4.42-11.75,4.42s-8.72-1.52-11.75-4.42c-3.17-3.04-4.69-7.2-4.69-11.13s1.52-8.18,4.69-11.17c3.04-2.9,7.33-4.42,11.75-4.42s8.71,1.52,11.75,4.42c3.17,2.99,4.69,7.2,4.69,11.17s-1.52,8.09-4.69,11.13Zm-17.79-16.85c-1.61,1.56-2.37,3.75-2.37,5.85,0,2.64,1.25,4.47,2.37,5.54,1.43,1.39,3.44,2.37,6.03,2.37s4.6-.94,5.99-2.32,2.41-3.44,2.41-5.72-1.03-4.38-2.41-5.72c-1.65-1.56-3.93-2.37-5.99-2.37s-4.42,.76-6.03,2.37Z"/>
          <path class="cls-1" d="M269.59,78.32c-3.08,1.12-4.78,1.48-6.7,1.48-5.18,0-9.07-2.06-11.53-4.47-2.91-2.91-4.51-6.97-4.51-10.86,0-4.25,1.83-8.27,4.51-10.99,2.64-2.68,6.61-4.65,11.26-4.65,1.43,0,3.75,.22,6.97,1.52v9.25c-2.5-3.08-5.45-3.26-6.75-3.26-2.23,0-3.93,.67-5.36,1.97-1.83,1.7-2.59,4.02-2.59,6.12s.85,4.34,2.41,5.81c1.3,1.21,3.35,2.06,5.54,2.06,1.16,0,4.02-.13,6.75-3.13v9.16Z"/>
          <path class="cls-1" d="M292.69,74.12h-10.82l-2.01,5.01h-8.18l11.44-29.81h8.45l11.22,29.81h-8.27l-1.83-5.01Zm-2.06-5.9l-3.35-9.65-3.26,9.65h6.61Z"/>
          <path class="cls-1" d="M313.97,49.31v23.24h9.3v6.57h-17.03v-29.81h7.73Z"/>
          <path class="cls-1" d="M194.33,123.81c1.65,1.56,4.16,3.04,6.84,3.04,1.56,0,2.5-.49,2.99-1.03,.45-.45,.76-1.12,.76-1.88,0-.58-.22-1.25-.85-1.79-.76-.67-1.92-.98-3.84-1.56l-2.01-.63c-1.25-.4-3.08-1.07-4.29-2.41-1.52-1.65-1.7-3.75-1.7-5.27,0-3.67,1.43-5.9,2.73-7.2,1.52-1.52,4.02-2.82,7.64-2.82,2.95,0,6.39,.94,9.21,2.41l-3.08,6.03c-2.32-1.83-4.07-2.01-5.1-2.01-.76,0-1.79,.18-2.55,.89-.45,.45-.76,.94-.76,1.61,0,.54,.09,.94,.4,1.34,.22,.27,.76,.8,2.59,1.34l2.37,.71c1.88,.58,3.84,1.25,5.41,2.95,1.52,1.61,1.92,3.26,1.92,5.32,0,2.73-.67,5.36-2.82,7.51-2.55,2.55-5.63,3.04-8.8,3.04-1.88,0-3.66-.18-5.85-.98-.49-.18-2.37-.89-4.51-2.37l3.31-6.26Z"/>
          <path class="cls-1" d="M237.81,127.75h-10.82l-2.01,5.01h-8.18l11.44-29.81h8.45l11.22,29.81h-8.27l-1.83-5.01Zm-2.06-5.9l-3.35-9.65-3.26,9.65h6.61Z"/>
          <path class="cls-1" d="M260.83,102.94v23.24h9.3v6.57h-17.03v-29.81h7.73Z"/>
          <path class="cls-1" d="M292.78,109.51h-9.21v4.96h8.72v6.57h-8.72v5.14h9.21v6.57h-16.94v-29.81h16.94v6.57Z"/>
          <path class="cls-1" d="M301.41,123.81c1.65,1.56,4.16,3.04,6.84,3.04,1.56,0,2.5-.49,2.99-1.03,.45-.45,.76-1.12,.76-1.88,0-.58-.22-1.25-.85-1.79-.76-.67-1.92-.98-3.84-1.56l-2.01-.63c-1.25-.4-3.08-1.07-4.29-2.41-1.52-1.65-1.7-3.75-1.7-5.27,0-3.67,1.43-5.9,2.73-7.2,1.52-1.52,4.02-2.82,7.64-2.82,2.95,0,6.39,.94,9.21,2.41l-3.08,6.03c-2.32-1.83-4.07-2.01-5.1-2.01-.76,0-1.79,.18-2.55,.89-.45,.45-.76,.94-.76,1.61,0,.54,.09,.94,.4,1.34,.22,.27,.76,.8,2.59,1.34l2.37,.71c1.88,.58,3.84,1.25,5.41,2.95,1.52,1.61,1.92,3.26,1.92,5.32,0,2.73-.67,5.36-2.82,7.51-2.55,2.55-5.63,3.04-8.8,3.04-1.88,0-3.67-.18-5.85-.98-.49-.18-2.37-.89-4.51-2.37l3.31-6.26Z"/>
          <path class="cls-1" d="M209.43,163.14h-9.34v4.96h8.49v6.57h-8.49v11.71h-7.73v-29.81h17.07v6.57Z"/>
          <path class="cls-1" d="M240.9,182.63c-3.04,2.9-7.33,4.42-11.75,4.42s-8.72-1.52-11.75-4.42c-3.17-3.04-4.69-7.2-4.69-11.13s1.52-8.18,4.69-11.17c3.04-2.9,7.33-4.42,11.75-4.42s8.71,1.52,11.75,4.42c3.17,2.99,4.69,7.2,4.69,11.17s-1.52,8.09-4.69,11.13Zm-17.79-16.85c-1.61,1.56-2.37,3.75-2.37,5.85,0,2.64,1.25,4.47,2.37,5.54,1.43,1.39,3.44,2.37,6.03,2.37s4.6-.94,5.99-2.32c1.39-1.39,2.41-3.44,2.41-5.72s-1.03-4.38-2.41-5.72c-1.65-1.56-3.93-2.37-5.99-2.37s-4.42,.76-6.03,2.37Z"/>
          <path class="cls-1" d="M262.57,156.57c2.23,0,5.09,.36,7.28,2.64,1.7,1.74,2.55,4.34,2.55,6.7,0,2.55-.89,4.78-2.37,6.21-1.16,1.12-2.73,1.79-4.11,2.06l9.34,12.2h-9.61l-7.42-11.44v11.44h-7.73v-29.81h12.07Zm-4.34,13.36h1.48c1.16,0,2.82-.31,3.75-1.21,.58-.58,.98-1.56,.98-2.5s-.36-1.88-1.03-2.5c-.72-.71-2.01-1.16-3.71-1.16h-1.48v7.37Z"/>
          <path class="cls-1" d="M299.93,185.58c-3.08,1.12-4.78,1.47-6.7,1.47-5.18,0-9.07-2.06-11.53-4.47-2.91-2.91-4.51-6.97-4.51-10.86,0-4.25,1.83-8.27,4.51-10.99,2.64-2.68,6.61-4.65,11.26-4.65,1.43,0,3.75,.22,6.97,1.52v9.25c-2.5-3.08-5.45-3.26-6.75-3.26-2.23,0-3.93,.67-5.36,1.97-1.83,1.7-2.59,4.02-2.59,6.12s.85,4.33,2.41,5.81c1.3,1.21,3.35,2.06,5.54,2.06,1.16,0,4.02-.13,6.75-3.13v9.16Z"/>
          <path class="cls-1" d="M321.79,163.14h-9.21v4.96h8.72v6.57h-8.72v5.14h9.21v6.57h-16.94v-29.81h16.94v6.57Z"/>
        </g>
      </g>
    </g>
  </g>
</svg>